# xmcd
#
# Track frame offsets:
#	183
#	17733
#	34433
#	55108
#
# Disc length: 937 seconds
#
# Revision: 0
# Processed by: cddbd v1.5.1PL0 Copyright (c) Steve Scherf et al.
# Submitted via: audiograbber 1.83.01
#
DISCID=2d03a704
DTITLE=Lovecraft - Medicine
DYEAR=1993
DGENRE=Rock
TTITLE0=Medicine
TTITLE1=999
TTITLE2=Fuckin Up
TTITLE3=Goodthing
EXTD=
EXTT0=
EXTT1=
EXTT2=
EXTT3=
PLAYORDER=
